<svg xmlns="http://www.w3.org/2000/svg" viewBox="0 0 256 256" width="256" height="256"><defs><linearGradient id="a" x1="0" y1="0" x2="256" y2="256" gradientUnits="userSpaceOnUse"><stop offset="0%" stop-color="#1e293b"/><stop offset="100%" stop-color="#0f172a"/></linearGradient><linearGradient id="c" x1="0" y1="0" x2="1" y2="0"><stop offset="0%" stop-color="#38bdf8"/><stop offset="100%" stop-color="#6366f1"/></linearGradient><linearGradient id="d" x1="0" y1="0" x2="0" y2="1"><stop offset="0%" stop-color="#fde047"/><stop offset="100%" stop-color="#f59e0b"/></linearGradient><filter id="b" x="-20%" y="-20%" width="140%" height="140%"><feDropShadow dx="0" dy="6" stdDeviation="6" flood-color="#000" flood-opacity=".3"/></filter></defs><rect width="256" height="256" rx="56" fill="url(#a)"/><g transform="translate(48 80)" filter="url(#b)" fill="url(#c)"><rect width="70" height="24" rx="12"/><rect y="44" width="115" height="24" rx="12"/><rect y="88" width="160" height="24" rx="12"/></g><g filter="url(#b)"><path d="M190 30q0 24 24 24-24 0-24 24 0-24-24-24 24 0 24-24" fill="url(#d)"/><path d="M224 80q0 12 12 12-12 0-12 12 0-12-12-12 12 0 12-12" fill="#bae6fd"/><path d="M140 20q0 8 8 8-8 0-8 8 0-8-8-8 8 0 8-8" fill="#7dd3fc"/></g></svg>